<?xml version="1.0" encoding="iso-8859-1"?>
<!-- Uploaded to: SVG Repo, www.svgrepo.com, Generator: SVG Repo Mixer Tools -->
<svg height="800px" width="800px" version="1.1" id="Layer_1" xmlns="http://www.w3.org/2000/svg" xmlns:xlink="http://www.w3.org/1999/xlink" 
	 viewBox="0 0 512 512" xml:space="preserve">
<path style="fill:#477777;" d="M31.147,423.5c-41.529-41.529-41.53-109.102,0-150.63l36.843-36.843
	c7.789-7.789,20.417-7.789,28.207,0c7.789,7.789,7.789,20.417,0,28.207l-36.843,36.843c-25.975,25.975-25.975,68.242,0,94.217
	c26.494,26.494,57.424,27.196,82.739,1.88c7.789-7.789,20.417-7.789,28.206,0c7.789,7.789,7.789,20.417,0,28.207
	C129.247,466.435,73.326,465.678,31.147,423.5z"/>
<path style="fill:#F5888E;" d="M406.571,311.528L292.719,425.381c-41.53,41.53-109.095,41.53-150.624,0
	c-41.53-41.53-41.53-109.095,0-150.625l113.853-113.853L406.571,311.528z"/>
<path style="fill:#F76976;" d="M406.571,311.528L292.719,425.381c-41.53,41.53-109.095,41.53-150.624,0L331.26,236.216
	L406.571,311.528z"/>
<path style="fill:#BBD7D8;" d="M473.91,277.774c-1.166,1.166-2.351,2.312-3.554,3.404c-10.239,9.525-21.654,17.065-33.754,22.659
	c-48.168,22.273-107.252,13.587-146.9-26.063c-39.659-39.659-48.347-98.742-26.072-146.91c5.603-12.091,13.144-23.506,22.668-33.745
	c1.09-1.203,2.238-2.388,3.404-3.554c50.791-50.791,133.417-50.791,184.209,0C524.692,144.347,524.702,226.983,473.91,277.774z"/>
<path style="fill:#B1CCCD;" d="M473.91,277.774c-1.166,1.166-2.351,2.312-3.554,3.404c-10.239,9.525-21.654,17.065-33.754,22.659
	c-48.168,22.273-107.252,13.587-146.9-26.063L473.91,93.566C524.692,144.347,524.702,226.983,473.91,277.774z"/>
<path style="fill:#477777;" d="M470.356,281.178c-10.239,9.525-21.654,17.065-33.754,22.659L263.63,130.864
	c5.603-12.091,13.144-23.506,22.668-33.745L470.356,281.178z"/>
<path style="fill:#437171;" d="M470.356,281.178c-10.239,9.525-21.654,17.065-33.754,22.659l-86.576-86.575l28.207-28.206
	L470.356,281.178z"/>
</svg>